<svg xmlns="http://www.w3.org/2000/svg" width="87.756" height="34.12" viewBox="0 0 87.756 34.12">
  <g id="Group_226" data-name="Group 226" transform="translate(-55.519 -108.451)">
    <path id="Path_1" data-name="Path 1" d="M784.469,265.288a4.939,4.939,0,0,0-5.04,5.182,4.784,4.784,0,0,0,5.142,5.08,6.729,6.729,0,0,0,4.267-1.361,3.081,3.081,0,0,0-1.1-2.053,5.009,5.009,0,0,1-2.845.976,2.063,2.063,0,0,1-2.377-1.971h6.422a8.391,8.391,0,0,0,.1-1.423A4.241,4.241,0,0,0,784.469,265.288Zm-1.951,4.146a1.909,1.909,0,0,1,1.971-1.849,1.667,1.667,0,0,1,1.687,1.849Z" transform="translate(-723.91 -144.372)"/>
    <path id="Path_2" data-name="Path 2" d="M819.3,249.386a1.817,1.817,0,0,0-1.829,1.809,1.829,1.829,0,1,0,1.829-1.809Z" transform="translate(-750.914 -132.98)"/>
    <path id="Path_3" data-name="Path 3" d="M818.518,265.9v9.653a9.577,9.577,0,0,0,1.5.122,9.264,9.264,0,0,0,1.524-.122V265.9a10.036,10.036,0,0,0-1.524-.122A9.205,9.205,0,0,0,818.518,265.9Z" transform="translate(-751.66 -144.72)"/>
    <path id="Path_4" data-name="Path 4" d="M843.453,266.253a8.2,8.2,0,0,0-2.154-.264,9.156,9.156,0,0,0-1.1.061L838.393,269l-1.91-2.947a6.871,6.871,0,0,0-1-.061,9.582,9.582,0,0,0-2.337.264l3.333,4.633-3.394,4.775a7.739,7.739,0,0,0,1.87.163c.427,0,1.077-.041,1.423-.081l1.87-2.967,2.032,2.967a13.131,13.131,0,0,0,1.5.081,9.839,9.839,0,0,0,1.91-.163l-3.536-4.755Z" transform="translate(-762.205 -144.869)"/>
    <path id="Path_5" data-name="Path 5" d="M944.565,253.21V266.6a.529.529,0,0,0,.407,0V253.21a.529.529,0,0,0-.407,0Z" transform="translate(-841.691 -135.734)" fill="#6f7d85"/>
    <path id="Path_6" data-name="Path 6" d="M958.2,265.849a4.766,4.766,0,0,0-3.251,1.138.4.4,0,0,0,.2.285,4.692,4.692,0,0,1,3.048-1.016c1.768,0,3.191.854,3.191,3.109v1.4a6.341,6.341,0,0,0-3.252-.894c-2.073,0-3.7.955-3.7,2.926,0,1.748,1.341,2.987,3.719,2.987a7.978,7.978,0,0,0,3.637-.792v-5.771C961.8,266.825,960.173,265.849,958.2,265.849Zm3.191,8.9a7.532,7.532,0,0,1-3.231.65c-2.195,0-3.272-1.138-3.272-2.723,0-1.321,1.056-2.4,3.251-2.4a6.126,6.126,0,0,1,3.252.935Z" transform="translate(-848.786 -144.77)" fill="#6f7d85"/>
    <path id="Path_7" data-name="Path 7" d="M991.655,268.881a3.294,3.294,0,0,1-2.052.63c-1.016,0-2.154-.63-2.154-2.7v-6.219h3.861a.3.3,0,0,0,.041-.182.275.275,0,0,0-.041-.163h-3.861v-2.621a.525.525,0,0,0-.406,0v2.621h-1.666a.386.386,0,0,0-.041.163.594.594,0,0,0,.041.182h1.666v6.442a2.555,2.555,0,0,0,2.561,2.886,3.684,3.684,0,0,0,2.236-.711A.481.481,0,0,0,991.655,268.881Z" transform="translate(-870.821 -138.881)" fill="#6f7d85"/>
    <ellipse id="Ellipse_4" data-name="Ellipse 4" cx="0.508" cy="0.508" rx="0.508" ry="0.508" transform="translate(122.615 118.021)" fill="#677b85"/>
    <path id="Path_8" data-name="Path 8" d="M1014.476,266.591v9.51a.529.529,0,0,0,.406,0v-9.51a.529.529,0,0,0-.406,0Z" transform="translate(-891.555 -145.268)" fill="#6f7d85"/>
    <path id="Path_9" data-name="Path 9" d="M1029.606,265.849a6.769,6.769,0,0,0-3.922,1.26V275.6a.529.529,0,0,0,.406,0v-8.311a6.447,6.447,0,0,1,3.414-1.036c2.642,0,3.455,1.585,3.455,3.373V275.6a.507.507,0,0,0,.2.041.513.513,0,0,0,.2-.041v-5.975C1033.365,267.414,1032.268,265.849,1029.606,265.849Z" transform="translate(-899.742 -144.769)" fill="#6f7d85"/>
    <path id="Path_10" data-name="Path 10" d="M1063.838,265.849a4.766,4.766,0,0,0-3.251,1.138.4.4,0,0,0,.2.285,4.692,4.692,0,0,1,3.048-1.016c1.768,0,3.191.854,3.191,3.109v1.4a6.34,6.34,0,0,0-3.251-.894c-2.073,0-3.7.955-3.7,2.926,0,1.748,1.341,2.987,3.719,2.987a7.979,7.979,0,0,0,3.637-.792v-5.771C1067.435,266.825,1065.81,265.849,1063.838,265.849Zm3.191,8.9a7.532,7.532,0,0,1-3.231.65c-2.195,0-3.272-1.138-3.272-2.723,0-1.321,1.057-2.4,3.251-2.4a6.124,6.124,0,0,1,3.251.935Z" transform="translate(-924.16 -144.77)" fill="#6f7d85"/>
    <path id="Path_11" data-name="Path 11" d="M875.071,265.078a5,5,0,0,0-5.3,5.162,4.9,4.9,0,0,0,5.249,5.141l5.314-5.314A4.933,4.933,0,0,0,875.071,265.078Zm-.02,7.783c-1.422,0-2.256-1.056-2.256-2.621,0-1.585.833-2.621,2.256-2.621s2.235,1.036,2.235,2.621C877.286,271.8,876.473,272.861,875.05,272.861Z" transform="translate(-788.381 -144.222)"/>
    <path id="Path_12" data-name="Path 12" d="M911.963,265.911l-.391.391c2.348.026,4.108,1.606,4.108,4.427,0,3.089-1.87,4.694-4.206,4.694a5.768,5.768,0,0,1-3.15-.732V269.55l-.406.406v9.511a.529.529,0,0,0,.406,0v-4.349a5.974,5.974,0,0,0,3.15.711c2.581,0,4.633-1.727,4.633-5.1C916.106,267.766,914.308,266.1,911.963,265.911Z" transform="translate(-815.593 -144.85)" fill="#6f7d85"/>
    <path id="Path_13" data-name="Path 13" d="M848.02,255.728a.116.116,0,0,1-.081-.033.113.113,0,0,1,0-.162l33.939-33.891a.117.117,0,0,1,.164,0,.114.114,0,0,1,0,.162L848.1,255.694A.115.115,0,0,1,848.02,255.728Z" transform="translate(-772.889 -113.158)" fill="#e50019"/>
    <path id="Path_14" data-name="Path 14" d="M904.54,276.177a1.32,1.32,0,0,1,2.64,0,1.32,1.32,0,0,1-2.64,0Z" transform="translate(-813.155 -151.161)" fill="#e50021"/>
    <path id="Path_15" data-name="Path 15" d="M858.241,328.082a.4.4,0,0,1,.792,0,.4.4,0,1,1-.792,0Z" transform="translate(-780.123 -188.86)" fill="#e50021"/>
    <path id="Path_16" data-name="Path 16" d="M938.506,244.952a.66.66,0,0,1,1.32,0,.66.66,0,0,1-1.32,0Z" transform="translate(-837.375 -129.344)" fill="#e50021"/>
    <path id="Path_17" data-name="Path 17" d="M871.991,312.311a.66.66,0,0,1,1.32,0,.66.66,0,0,1-1.32,0Z" transform="translate(-789.932 -177.395)" fill="#e50021"/>
    <path id="Path_18" data-name="Path 18" d="M921.1,261.128a.924.924,0,0,1,1.848,0,.924.924,0,1,1-1.848,0Z" transform="translate(-824.96 -140.7)" fill="#e50021"/>
    <path id="Path_19" data-name="Path 19" d="M886.305,295.768a.924.924,0,0,1,1.848,0,.924.924,0,0,1-1.848,0Z" transform="translate(-800.144 -165.412)" fill="#e50021"/>
    <path id="Path_20" data-name="Path 20" d="M955.231,229.842a.4.4,0,0,1,.792,0,.4.4,0,1,1-.792,0Z" transform="translate(-849.301 -118.724)" fill="#e50021"/>
  </g>
</svg>
